<?xml version="1.0" encoding="UTF-8"?>
<svg version="1.1" xmlns="http://www.w3.org/2000/svg" width="512" height="512">
<path d="M0 0 C0.63856934 0.32307129 1.27713867 0.64614258 1.93505859 0.97900391 C16.31271362 8.29705683 29.07198509 18.10140482 40 30 C43.34783658 28.56309669 45.30164315 26.79860568 47.75 24.125 C65.48709166 6.038409 88.61745248 -5.37837284 112.875 -11.875 C113.58615967 -12.06602295 114.29731934 -12.2570459 115.0300293 -12.45385742 C126.62079387 -15.35648501 138.26571419 -16.36892113 150.1875 -16.3125 C152.08423462 -16.30404053 152.08423462 -16.30404053 154.01928711 -16.29541016 C194.25530322 -15.77762489 229.59633941 1.12811627 257.79785156 29.42919922 C274.32801912 46.5182482 285.61668801 67.85530588 292.25 90.5625 C292.61967896 91.81969849 292.61967896 91.81969849 292.99682617 93.10229492 C296.48314603 105.57375162 297.37900837 117.8704942 297.3125 130.75 C297.31034485 131.50178528 297.3081897 132.25357056 297.30596924 133.02813721 C297.25556936 143.98064337 296.84794686 154.36622123 294 165 C293.71793701 166.12873535 293.71793701 166.12873535 293.43017578 167.28027344 C288.69546845 186.03076915 280.86431249 203.66372533 269 219 C268.06220703 220.2684375 268.06220703 220.2684375 267.10546875 221.5625 C263.47326491 226.26215625 259.70478565 230.3207687 255.3125 234.3125 C242.52541125 245.99303176 242.52541125 245.99303176 238.30078125 262.125 C237.41804347 273.49741402 230.71086906 282.60218522 222.6484375 290.22265625 C213.53492414 297.96190966 202.1940783 303.60970391 190 303 C189.98582031 303.65484375 189.97164063 304.3096875 189.95703125 304.984375 C189.23244584 318.84941468 182.78301703 330.73022968 172.8125 340.25 C163.58617448 348.04111933 152.84790627 351.75285197 141 353 C140.91363281 353.72703125 140.82726562 354.4540625 140.73828125 355.203125 C138.69621337 369.8160878 132.78014758 382.18144897 121.10546875 391.55859375 C111.98690232 397.80117448 103.13414812 402.17397106 92 402 C91.93683594 402.84820312 91.87367188 403.69640625 91.80859375 404.5703125 C90.27926353 419.21968619 84.34773348 429.6668408 74 440 C72.76112112 441.30679538 71.52430747 442.61555038 70.2890625 443.92578125 C58.17381336 456.6162047 46.67850912 465.70411604 28.47314453 466.40014648 C12.82970342 466.64899723 -0.51789181 461.67956985 -12.1171875 451.04296875 C-18.0389782 444.61745726 -21.67263824 437.35112162 -24 429 C-24.67933594 429.15984375 -25.35867187 429.3196875 -26.05859375 429.484375 C-40.54221666 432.02333678 -54.83763858 429.25303096 -67 421 C-78.71651087 411.93066873 -86.82353816 400.27556664 -88.75 385.3125 C-88.8325 384.219375 -88.915 383.12625 -89 382 C-90.051875 382.0825 -91.10375 382.165 -92.1875 382.25 C-105.1634037 382.18122313 -116.58785467 375.35864231 -125.8125 366.75 C-134.63515668 357.42319151 -140.21688302 344.58656418 -140.25 331.6875 C-140.18755026 330.12402607 -140.11259303 328.56066444 -140 327 C-141.11375 326.9175 -142.2275 326.835 -143.375 326.75 C-155.94957252 325.07339033 -166.79210095 317.65099556 -174.4375 307.6875 C-183.970406 293.58674321 -186.29480539 277.96703288 -183.3515625 261.3359375 C-180.65801311 252.61067921 -175.48667932 245.20439352 -170 238 C-170.73734375 237.443125 -171.4746875 236.88625 -172.234375 236.3125 C-176.84408123 232.45805637 -180.29325828 227.70330835 -184 223 C-184.72445312 222.12601563 -185.44890625 221.25203125 -186.1953125 220.3515625 C-197.94234954 205.65724018 -205.88940824 188.01911857 -211 170 C-211.22300781 169.22382324 -211.44601563 168.44764648 -211.67578125 167.64794922 C-217.5839095 145.94101484 -218.04028564 117.71671447 -212 96 C-211.7525 95.1037793 -211.505 94.20755859 -211.25 93.28417969 C-204.1550352 68.4928617 -192.7269203 47.7247933 -175 29 C-174.18015625 28.11570313 -173.3603125 27.23140625 -172.515625 26.3203125 C-128.64532438 -19.49689495 -55.59554458 -29.03142309 0 0 Z M43.25 76.6875 C41.47419324 78.46833324 39.69815334 80.24893401 37.921875 82.02929688 C33.61189331 86.35018985 29.30479239 90.67393735 25 95 C29.09915594 103.70740247 37.30857424 110.19556808 46 114 C46.68320312 114.31710938 47.36640625 114.63421875 48.0703125 114.9609375 C56.92544875 118.52259747 67.64037458 118.2658415 76.58203125 115.0859375 C85.19978923 111.21560354 91.69077271 105.79015742 97.94091797 98.82446289 C99.37109375 97.28125 99.37109375 97.28125 102 95 C106.10066858 95.14957662 108.23270935 97.86319261 110.99871826 100.63795471 C111.48807869 101.12475187 111.97743912 101.61154902 112.48162866 102.11309761 C114.1209443 103.74746853 115.74930169 105.39233738 117.37792969 107.03735352 C118.55027421 108.21054416 119.72327954 109.38307479 120.89689636 110.55499268 C124.08306281 113.74029717 127.25988466 116.93477738 130.43513775 120.13095593 C133.75431769 123.46886919 137.08197551 126.7983083 140.40875244 130.12864685 C146.70806492 136.43728962 152.99969002 142.75354188 159.28860497 149.07254785 C166.44830599 156.26576221 173.61651103 163.45047623 180.78545141 170.6344806 C195.53313217 185.41353267 210.27007367 200.20325385 225 215 C241.01733727 207.50829082 251.93888133 183.52328448 258 168 C268.16316924 138.49495882 265.51436485 109.14377568 252.22265625 81.23046875 C238.52943506 53.50526179 213.48521144 32.36814035 184.4375 22.125 C124.77519283 3.9941832 83.15758267 36.58202231 43.25 76.6875 Z M-101 22 C-101.69899414 22.22494141 -102.39798828 22.44988281 -103.11816406 22.68164062 C-131.99782792 32.25107739 -156.05952837 52.66977887 -169.9765625 79.76953125 C-178.40199552 96.82262527 -183.51102205 116.84239895 -182 136 C-181.9071875 137.26585937 -181.814375 138.53171875 -181.71875 139.8359375 C-179.09428407 169.66161148 -165.5033365 195.39263586 -144 216 C-143.43152344 215.80664062 -142.86304688 215.61328125 -142.27734375 215.4140625 C-141.50519531 215.15367187 -140.73304688 214.89328125 -139.9375 214.625 C-139.18339844 214.36976563 -138.42929688 214.11453125 -137.65234375 213.8515625 C-136.77707031 213.57054687 -135.90179688 213.28953125 -135 213 C-133.92105469 212.64421875 -132.84210938 212.2884375 -131.73046875 211.921875 C-118.02555101 208.53510999 -103.70952277 210.95251068 -91.5625 217.9375 C-80.22412952 225.30744081 -71.41543099 236.19314101 -68.37109375 249.63671875 C-67.57257649 254.72201287 -67.29745505 259.86498649 -67 265 C-66.10539062 265.21914063 -65.21078125 265.43828125 -64.2890625 265.6640625 C-56.41180251 267.72995371 -49.67907889 270.21893273 -43 275 C-42.36578125 275.45117188 -41.7315625 275.90234375 -41.078125 276.3671875 C-29.77489495 285.21971723 -25.23273263 298.513215 -22 312 C-20.82824219 312.21914063 -19.65648437 312.43828125 -18.44921875 312.6640625 C-3.12155348 315.68745428 9.31945982 320.84606552 19.07421875 333.7421875 C22.54264803 338.99209514 24.88926642 344.09624667 27 350 C27.64437012 349.98428955 28.28874023 349.9685791 28.95263672 349.95239258 C31.92666529 349.88929099 34.90055229 349.85077414 37.875 349.8125 C39.39480469 349.77479492 39.39480469 349.77479492 40.9453125 349.73632812 C56.03652521 349.59122031 67.57491097 355.70589003 78.90625 365.36328125 C82.76623997 368.38069878 86.64258276 368.39888225 91.36328125 368.34375 C97.04256448 367.60333974 100.69195163 364.44220718 104.4375 360.3125 C106.4988952 355.94234219 107.548076 351.83677074 107 347 C104.58961591 340.52314633 100.6262079 336.06867384 95.75292969 331.29882812 C95.03058136 330.57589569 94.30823303 329.85296326 93.56399536 329.10812378 C91.19265287 326.73955056 88.80749617 324.38543363 86.421875 322.03125 C84.76762066 320.3844621 83.1142518 318.73678426 81.46173096 317.08825684 C77.12386583 312.76561599 72.77412085 308.45512614 68.42175293 304.14709473 C63.97702587 299.74338904 59.54369323 295.32824484 55.109375 290.9140625 C46.41733555 282.26483743 37.71269704 273.62841206 29 265 C30.69854037 261.37916872 32.71104782 259.05744646 35.5703125 256.234375 C36.46621094 255.34492188 37.36210937 254.45546875 38.28515625 253.5390625 C39.69087891 252.15847656 39.69087891 252.15847656 41.125 250.75 C42.07988637 249.80515144 43.03431859 248.85984367 43.98828125 247.9140625 C46.32109087 245.60481662 48.65844086 243.30036797 51 241 C53.91128008 242.31520108 55.96538638 243.72179418 58.20527649 245.99168396 C59.11970016 246.9106546 59.11970016 246.9106546 60.05259705 247.84819031 C61.03843529 248.85424065 61.03843529 248.85424065 62.04418945 249.88061523 C62.74554016 250.58809906 63.44689087 251.29558289 64.16949463 252.02450562 C65.69124432 253.56055643 67.2107477 255.09883516 68.72826576 256.6390667 C71.13204966 259.07763375 73.54286054 261.50904177 75.95585632 263.93849182 C82.81528853 270.84682595 89.66354452 277.7661586 96.50268555 284.69458008 C100.68736916 288.93289121 104.88179176 293.16136029 109.08232689 297.38395882 C110.67967851 298.99371276 112.27322678 300.60725014 113.86284828 302.22463799 C116.08867422 304.48898788 118.32663549 306.7406626 120.56762695 308.98999023 C121.21877975 309.65866623 121.86993256 310.32734222 122.54081726 311.01628113 C127.00976405 315.46636853 131.11686484 318.57244515 137.58984375 319.28515625 C144.12466803 318.6653809 148.37964254 316.70899741 153 312 C156.51602789 307.16546166 156.90279703 301.80622406 156 296 C153.73232847 290.32696962 150.14526975 286.76678023 145.85058594 282.58935547 C145.12677734 281.87314026 144.40296875 281.15692505 143.65722656 280.41900635 C142.09065497 278.87049829 140.52070031 277.32540686 138.94774628 275.78338242 C136.46158964 273.3448385 133.98584578 270.89615741 131.51275635 268.44436646 C124.48175787 261.47754763 117.43248324 254.52935246 110.37597656 247.58837891 C106.05679652 243.33850752 101.74971606 239.07667852 97.4497757 234.80734634 C95.80699693 233.18138706 94.15941957 231.56026166 92.50707245 229.94402695 C90.204004 227.69110271 87.91646567 225.42345328 85.63183594 223.15185547 C84.94099915 222.48370819 84.25016235 221.81556091 83.53839111 221.12716675 C82.92145386 220.50769165 82.3045166 219.88821655 81.66888428 219.24996948 C81.12615749 218.71574812 80.58343071 218.18152676 80.02425766 217.63111687 C79 216 79 216 79.21532059 213.94099617 C81.19559596 209.04255377 86.13597578 205.35380455 89.8125 201.6875 C90.72837891 200.74326172 91.64425781 199.79902344 92.58789062 198.82617188 C93.47283203 197.93865234 94.35777344 197.05113281 95.26953125 196.13671875 C96.08010986 195.31905029 96.89068848 194.50138184 97.72583008 193.65893555 C100 192 100 192 101.93859196 192.21405888 C104.29981761 193.11430973 105.48534009 194.12272834 107.25669861 195.91612244 C107.87761887 196.53725418 108.49853912 197.15838593 109.13827515 197.79833984 C110.14285263 198.82616577 110.14285263 198.82616577 111.16772461 199.87475586 C111.88204147 200.59345352 112.59635834 201.31215118 113.33232117 202.05262756 C114.88308374 203.61481024 116.43037058 205.1804491 117.97459221 206.74909782 C120.41821405 209.23096242 122.87104498 211.70337596 125.32655334 214.17347717 C131.4238065 220.31087826 137.50472556 226.46438372 143.58624268 232.61737061 C148.72399388 237.81427335 153.8678073 243.00502847 159.01989937 248.18771553 C161.43734892 250.62462757 163.84559116 253.07039634 166.25364685 255.5165863 C167.73627915 257.01011666 169.21933453 258.50322718 170.70288086 259.99584961 C171.704422 261.02063919 171.704422 261.02063919 172.72619629 262.06613159 C177.35767251 266.69917817 181.07713059 269.25252216 187.8125 269.4375 C193.31438768 269.31450698 196.88341436 267.58418658 201 264 C204.7390433 259.87746508 205.60622622 256.10783639 206.3125 250.7578125 C205.29258609 241.75707226 198.47248681 235.92300599 192.36621094 229.91210938 C191.37955186 228.92658038 190.39377628 227.9401662 189.40881348 226.95294189 C186.74859265 224.29157927 184.07627211 221.64268124 181.40151501 218.99593925 C178.60230218 216.2218295 175.81450634 213.43629325 173.02545166 210.65197754 C167.74951362 205.38844318 162.46346787 200.13518364 157.17366433 194.88558817 C151.1488333 188.90555618 145.13543462 182.91408364 139.1229434 176.92164898 C126.76125718 164.60170795 114.38537418 152.29612609 102 140 C100.86054932 140.48283447 99.72109863 140.96566895 98.54711914 141.46313477 C97.02241244 142.10199802 95.497585 142.74057318 93.97265625 143.37890625 C93.22520142 143.69653931 92.47774658 144.01417236 91.7076416 144.34143066 C72.30539095 152.42964852 51.22480373 152.09817862 31.75 144.3125 C18.82270236 138.36275831 9.09276404 128.77696235 -1 119 C-2.35593262 117.7008667 -2.35593262 117.7008667 -3.73925781 116.37548828 C-6.18883532 114.02755353 -8.62284291 111.66433657 -11.0479126 109.29110718 C-12.48531433 107.88932179 -13.93377781 106.49890849 -15.38232422 105.10864258 C-16.25646973 104.2452124 -17.13061523 103.38178223 -18.03125 102.4921875 C-19.21557617 101.33759033 -19.21557617 101.33759033 -20.42382812 100.15966797 C-22 98 -22 98 -21.82362366 96.11141968 C-20.78958686 93.46059048 -19.41986981 92.05927704 -17.39819336 90.05761719 C-16.63748032 89.29713074 -15.87676727 88.53664429 -15.09300232 87.75311279 C-14.26695999 86.94255432 -13.44091766 86.13199585 -12.58984375 85.296875 C-11.74780899 84.45908508 -10.90577423 83.62129517 -10.03822327 82.75811768 C-7.34493317 80.08163168 -4.6414034 77.41575944 -1.9375 74.75 C-0.11064452 72.93818902 1.71553605 71.12569726 3.54101562 69.3125 C8.01953977 64.8670682 12.50651745 60.43030839 17 56 C16.05934514 54.88562076 15.11623667 53.77331237 14.17211914 52.66186523 C13.38473106 51.73240334 13.38473106 51.73240334 12.58143616 50.78416443 C-3.99362988 32.08429906 -29.7235174 21.53515272 -54 18 C-69.9105748 17.07895507 -85.74274525 17.06012073 -101 22 Z M-140.3125 256.8125 C-140.91167236 257.38049316 -141.51084473 257.94848633 -142.12817383 258.53369141 C-146.78430971 263.19179273 -150.78506366 268.68509984 -151.12329102 275.47509766 C-150.76907034 281.83142985 -148.22736162 285.94397389 -143.5625 290.25 C-138.69499529 293.57414956 -134.92770814 294.60281778 -129 294 C-121.99403367 291.14406468 -117.42539283 287.00620676 -112.1875 281.625 C-111.06311523 280.51125 -111.06311523 280.51125 -109.91601562 279.375 C-105.48177777 274.88924731 -101.60627279 270.89916616 -100.6015625 264.4375 C-100.66025637 258.33333716 -101.11756321 253.83573064 -105.6875 249.33984375 C-110.87765563 244.7660191 -114.07399615 243.48500316 -121.078125 243.62109375 C-129.12883648 244.66510313 -134.71495774 251.41938469 -140.3125 256.8125 Z M-94.25 309.75 C-94.94351563 310.42804688 -95.63703125 311.10609375 -96.3515625 311.8046875 C-101.22766293 316.71815268 -105.07039744 321.61856441 -106.53125 328.50390625 C-106.43654865 334.7423577 -104.93902124 339.03795771 -100.50390625 343.5078125 C-96.58467673 346.9285864 -93.43345487 348.16598143 -88.3125 348.375 C-87.50425781 348.42398438 -86.69601563 348.47296875 -85.86328125 348.5234375 C-77.95179665 347.07713609 -72.13031658 340.62435197 -66.6875 335.125 C-65.98560547 334.44308594 -65.28371094 333.76117188 -64.56054688 333.05859375 C-59.89866954 328.3922723 -56.7917763 324.41686978 -55.6015625 317.77734375 C-55.6800852 311.61331205 -57.34406872 307.97791792 -61.25 303.3125 C-65.36422704 299.85280908 -69.10752956 298.24085987 -74.4375 297.5625 C-82.95651495 298.60869482 -88.44126617 303.80874753 -94.25 309.75 Z M-43.25 357.75 C-43.94351563 358.42804688 -44.63703125 359.10609375 -45.3515625 359.8046875 C-50.53827596 365.03114589 -54.91427945 370.42767954 -55.5 378 C-55.16955642 383.78846 -52.66249215 388.38013585 -48.5625 392.375 C-43.10278746 395.83725673 -38.41391938 396.93352949 -32 396 C-25.53446591 393.10591948 -20.58347024 388.04168787 -15.6875 383.0625 C-14.98560547 382.37220703 -14.28371094 381.68191406 -13.56054688 380.97070312 C-8.63541781 376.01740364 -4.59608504 371.45148441 -4.5 364.125 C-4.6794468 358.70896928 -6.42515982 355.03100468 -10 351 C-14.82148832 347.23923911 -18.6641211 345.61127717 -24.83959961 345.72827148 C-32.57233609 346.70087129 -38.05478145 352.43625936 -43.25 357.75 Z M19.6875 393.8125 C18.99849609 394.49892578 18.30949219 395.18535156 17.59960938 395.89257812 C13.06104766 400.51867237 8.72996305 405.08578869 7.50390625 411.66015625 C7.65143232 417.70872508 8.16248094 422.20845926 12.6875 426.66015625 C16.91236466 430.38331823 19.45306573 432.16221827 25.1875 432.3125 C26.10917969 432.34988281 27.03085938 432.38726562 27.98046875 432.42578125 C36.01781407 431.29244278 41.29339327 425.19648254 46.75 419.6875 C47.50410156 418.95337891 48.25820313 418.21925781 49.03515625 417.46289062 C54.26582748 412.22757404 57.4811837 408.07641376 58.4375 400.5625 C57.7218202 394.7348216 55.53692418 390.07251111 51.125 386.125 C38.75509385 377.71346382 28.85708335 384.25459936 19.6875 393.8125 Z " fill="#000000" transform="translate(215,31)"/>
</svg>
